<?xml version="1.0" standalone="no"?>
<!DOCTYPE svg PUBLIC "-//W3C//DTD SVG 20010904//EN"
 "http://www.w3.org/TR/2001/REC-SVG-20010904/DTD/svg10.dtd">
<svg version="1.0" xmlns="http://www.w3.org/2000/svg"
 width="512.000000pt" height="512.000000pt" viewBox="0 0 512.000000 512.000000"
 preserveAspectRatio="xMidYMid meet">

<g transform="translate(0.000000,512.000000) scale(0.100000,-0.100000)"
fill="#000000" stroke="none">
<path d="M1950 5005 c0 -3 14 -32 30 -65 17 -33 30 -62 30 -65 0 -3 -12 -5
-27 -5 -27 -1 -27 -1 -9 -15 11 -8 27 -15 36 -15 13 0 70 -94 70 -116 0 -7
-40 0 -103 17 -29 8 -41 17 -49 40 -12 35 -31 39 -22 4 7 -29 8 -29 -46 -10
-48 17 -70 19 -70 7 0 -5 25 -14 55 -21 30 -7 55 -16 55 -21 0 -4 -13 -13 -30
-20 -30 -12 -41 -30 -19 -30 6 0 28 10 49 21 l38 22 73 -20 73 -20 -84 -45
c-65 -35 -92 -45 -116 -41 -37 6 -55 -13 -24 -25 19 -7 17 -10 -20 -31 -23
-13 -39 -25 -36 -28 3 -3 25 6 50 21 56 33 59 33 51 -4 -4 -18 -3 -30 4 -30
10 0 23 32 26 65 1 14 23 31 74 58 40 22 75 36 78 34 11 -12 -31 -113 -58
-142 -30 -32 -40 -57 -14 -35 25 21 26 7 4 -49 -19 -52 -19 -75 2 -54 5 5 18
32 28 59 l19 49 11 -28 c14 -37 32 -26 21 13 -5 16 -11 34 -15 40 -7 11 24
130 34 130 3 0 18 -21 32 -48 19 -33 24 -53 19 -67 -12 -28 -12 -45 0 -45 6 0
10 9 10 20 0 37 15 21 53 -55 20 -41 41 -75 47 -75 14 0 14 2 -30 82 -22 40
-40 76 -40 79 0 3 11 4 25 1 14 -2 25 0 25 6 0 6 -16 14 -35 18 -30 5 -40 14
-61 56 -14 28 -24 52 -22 54 9 8 103 -28 120 -46 21 -22 35 -25 40 -10 2 6 27
2 64 -12 l61 -22 6 -76 c10 -118 51 -228 140 -368 21 -35 37 -65 35 -67 -10
-11 -201 131 -296 219 -57 53 -109 96 -117 96 -24 0 -37 -29 -33 -72 3 -24 15
-104 28 -178 l22 -134 -36 -33 c-45 -42 -92 -46 -102 -8 -3 14 -3 32 0 41 3 8
2 24 -4 33 -5 10 -11 85 -14 167 -3 104 -8 150 -16 152 -24 8 -30 -25 -30
-171 l0 -148 -32 -47 c-100 -146 -261 -262 -364 -262 -79 0 -131 110 -108 226
5 28 8 29 62 29 44 1 69 7 110 30 95 52 202 188 202 257 0 15 -12 40 -26 57
-22 27 -33 31 -72 31 -63 0 -135 -42 -198 -116 -27 -31 -67 -74 -89 -96 -35
-34 -40 -46 -41 -86 -1 -26 -5 -81 -9 -123 -18 -180 66 -301 197 -286 92 11
260 121 337 221 l44 57 16 -25 c32 -52 94 -54 163 -5 l29 21 15 -21 c18 -25
37 -27 54 -6 9 11 5 48 -20 177 -18 90 -35 170 -38 178 -3 8 21 -9 54 -39 88
-81 203 -163 314 -226 112 -64 143 -68 148 -20 2 23 -11 49 -59 115 -141 196
-199 330 -199 461 0 38 6 84 14 102 27 64 98 107 176 107 102 0 326 -61 483
-132 95 -43 117 -41 117 9 0 20 -11 29 -67 54 -92 42 -282 105 -371 124 -40 8
-113 15 -161 15 -72 0 -96 -4 -132 -23 -52 -27 -106 -102 -115 -159 -4 -21
-10 -37 -13 -36 -3 2 -37 14 -74 28 -64 24 -85 40 -52 40 8 0 15 5 15 10 0 12
2 12 -40 0 -27 -8 -48 -6 -90 6 l-55 17 50 23 c31 14 70 23 103 23 28 1 52 6
52 11 0 6 -8 10 -17 10 -26 0 -4 15 50 35 46 17 64 31 54 41 -2 2 -33 -9 -68
-25 -61 -30 -85 -33 -61 -9 7 7 12 17 12 22 -1 6 -18 -7 -38 -30 -36 -39 -116
-84 -128 -71 -13 13 20 80 55 113 23 21 31 34 21 34 -9 0 -22 -6 -29 -12 -11
-11 -12 -8 -6 12 4 14 15 42 25 63 10 20 14 40 9 42 -11 8 -35 -31 -50 -82
-13 -45 -29 -57 -29 -22 0 11 -4 17 -10 14 -13 -8 -13 -58 0 -71 10 -10 -3
-69 -20 -88 -5 -4 -22 21 -39 56 -24 50 -29 73 -24 101 4 24 2 37 -6 37 -6 0
-11 -4 -11 -10 0 -24 -18 -6 -40 40 -13 28 -27 50 -32 50 -4 0 -8 -2 -8 -5z
m-134 -730 c10 -26 -17 -76 -78 -141 -64 -68 -125 -104 -176 -104 -42 0 -41
13 7 86 43 65 110 133 156 157 39 21 84 21 91 2z"/>
<path d="M2654 4573 c-6 -22 -2 -31 26 -55 42 -34 155 -82 233 -98 l58 -12 -7
-31 c-3 -18 -36 -111 -73 -207 -55 -147 -66 -185 -66 -237 0 -50 4 -67 21 -83
30 -30 89 -35 165 -15 108 29 114 30 126 2 6 -13 27 -31 46 -40 68 -33 160
-16 300 55 44 21 81 38 83 36 2 -3 -21 -38 -51 -80 -69 -96 -76 -162 -15 -143
18 6 161 194 173 228 2 6 7 10 10 7 4 -3 25 -100 47 -215 46 -235 71 -328 106
-398 56 -109 152 -179 218 -157 89 29 142 148 186 425 28 171 28 170 4 179
-29 11 -52 -22 -59 -83 -28 -246 -81 -412 -141 -440 -31 -14 -70 4 -108 50
-60 71 -90 162 -136 419 -17 91 -33 174 -36 184 -5 15 -3 18 12 12 73 -29 214
-57 267 -53 62 6 84 18 98 56 18 46 -6 84 -131 200 -103 97 -140 140 -185 216
-8 12 -17 16 -32 11 -17 -5 -29 -29 -53 -100 -27 -83 -37 -100 -83 -143 -156
-147 -404 -247 -460 -185 -10 10 -17 34 -17 53 0 35 35 130 65 175 l17 26 29
-35 c15 -19 42 -40 59 -47 69 -29 183 11 262 92 61 62 78 113 57 171 -32 92
-129 111 -250 49 -41 -21 -59 -27 -55 -17 14 38 -22 57 -66 34 -24 -13 -48
-67 -48 -111 0 -20 -12 -51 -31 -78 -46 -68 -78 -135 -93 -193 l-13 -52 -69
-22 c-83 -27 -152 -30 -161 -8 -6 16 21 103 105 340 l50 140 51 -3 c99 -6 294
34 305 64 3 8 1 25 -5 36 -12 22 -23 22 -149 -7 -130 -29 -328 -2 -458 64 -33
17 -63 35 -67 41 -3 5 -17 10 -30 10 -18 0 -26 -7 -31 -27z m944 -265 c46 -46
-44 -155 -155 -188 -52 -16 -97 -1 -118 41 -14 27 -14 28 31 68 86 76 206 115
242 79z m258 -182 c3 -7 52 -55 110 -105 57 -51 104 -98 104 -106 0 -11 -12
-15 -44 -15 -53 0 -220 41 -269 67 l-35 18 56 77 c59 79 69 88 78 64z"/>
<path d="M1680 4479 c-345 -21 -482 -125 -483 -369 0 -127 43 -267 128 -411
20 -34 34 -64 31 -66 -8 -8 -109 54 -177 108 -93 75 -130 84 -145 36 -10 -31
-6 -143 11 -286 8 -69 13 -126 11 -128 -1 -2 -27 36 -56 84 -115 190 -312 330
-374 267 -20 -20 -20 -34 0 -62 15 -22 17 -22 34 -7 16 14 24 15 52 6 87 -30
170 -119 271 -291 74 -127 85 -140 108 -140 36 0 42 42 25 190 -9 74 -19 173
-22 220 -7 84 -7 85 13 70 161 -116 311 -194 363 -188 41 5 39 53 -5 105 -58
68 -140 215 -170 305 -32 96 -43 214 -26 276 7 24 28 61 48 83 77 85 185 114
468 126 178 8 180 8 183 31 8 55 -15 58 -288 41z"/>
<path d="M2452 3710 c-225 -19 -452 -99 -644 -227 -95 -63 -244 -206 -319
-306 -78 -103 -160 -272 -195 -401 -24 -87 -32 -105 -54 -115 -67 -30 -115
-164 -114 -321 0 -84 3 -102 30 -160 17 -36 47 -86 67 -113 21 -26 37 -49 37
-52 0 -2 -25 -23 -55 -45 -40 -29 -55 -47 -55 -64 0 -17 -10 -28 -35 -40 -39
-19 -42 -27 -20 -46 10 -9 54 -12 147 -10 73 2 136 2 141 1 15 -2 -26 -64 -75
-111 -47 -45 -55 -70 -24 -70 7 0 43 14 79 30 37 17 68 30 70 30 2 0 19 -21
37 -47 19 -26 53 -69 77 -95 36 -41 43 -55 43 -91 0 -74 84 -180 165 -207 20
-6 59 -10 88 -8 36 2 57 -1 70 -12 19 -16 23 -45 6 -55 -5 -4 -9 -10 -7 -15 4
-11 96 -80 107 -80 5 0 12 14 16 31 4 17 13 33 20 35 7 3 49 -6 92 -20 218
-71 494 -83 710 -30 47 12 71 13 99 5 54 -15 120 18 208 101 38 37 75 64 82
61 22 -8 142 83 244 186 198 199 329 452 376 727 34 198 0 570 -57 623 -19 17
-19 18 5 40 36 34 50 74 41 118 -4 21 -7 77 -6 125 3 106 -7 128 -55 128 -37
0 -58 -17 -114 -91 -22 -29 -25 -31 -28 -14 -5 28 -98 148 -169 220 l-59 60 6
130 c7 155 5 171 -26 192 -31 20 -62 12 -105 -28 -19 -17 -65 -51 -102 -76
-66 -44 -69 -44 -82 -25 -8 10 -38 29 -67 42 -72 31 -264 78 -345 85 -139 12
-160 12 -251 5z m954 -156 c2 -119 -6 -164 -27 -164 -6 0 -25 12 -42 26 -32
27 -66 27 -98 -2 -21 -19 -26 -18 -54 14 -21 25 -29 27 -96 27 -42 0 -74 4
-76 11 -2 6 44 36 102 68 58 32 131 79 163 105 69 57 81 63 107 46 18 -11 20
-24 21 -131z m-1056 -32 c0 -4 -21 -18 -46 -32 -76 -40 -106 -115 -68 -169 23
-32 90 -61 143 -61 l44 0 -23 -25 c-44 -47 -120 -52 -197 -11 -62 32 -92 139
-58 206 16 31 66 73 105 89 30 12 100 14 100 3z m-458 -216 c58 -61 108 -123
108 -135 0 -7 -23 -11 -64 -11 -57 0 -65 -3 -80 -25 -16 -24 -18 -25 -39 -10
-12 8 -38 15 -59 15 -44 0 -46 5 -15 47 12 16 35 58 51 92 35 72 50 76 98 27z
m1176 11 c6 -7 10 -26 9 -42 -1 -22 4 -32 21 -40 28 -13 28 -19 -4 -44 l-26
-20 -28 21 c-26 19 -37 20 -119 14 -100 -7 -119 1 -80 39 30 29 155 84 190 85
15 0 31 -6 37 -13z m252 -113 c21 -32 22 -42 14 -107 -9 -70 -22 -91 -42 -65
-6 7 -29 34 -51 59 -23 25 -41 49 -41 52 0 18 66 97 81 97 10 0 27 -16 39 -36z
m490 -121 c0 -21 -8 -52 -19 -69 -25 -41 -164 -165 -204 -183 -18 -8 -26 -16
-19 -18 28 -10 65 10 130 70 125 115 122 113 132 97 5 -8 10 -31 10 -51 0 -28
-8 -44 -37 -72 -20 -20 -39 -37 -43 -37 -4 0 -22 -28 -40 -61 -31 -59 -32 -65
-27 -141 4 -43 12 -88 18 -100 9 -18 9 -20 -4 -15 -21 8 -32 -40 -18 -76 10
-25 9 -26 -15 -15 -40 18 -49 0 -31 -63 9 -29 14 -56 11 -60 -4 -8 10 -81 22
-112 5 -13 2 -16 -10 -11 -13 5 -16 -2 -16 -42 0 -27 -9 -69 -21 -94 -11 -24
-19 -53 -18 -65 1 -11 1 -83 0 -160 l-1 -141 -56 -69 c-30 -39 -60 -70 -66
-70 -6 0 -19 27 -29 60 -30 91 -17 164 43 249 37 52 26 61 -15 13 l-32 -38 2
133 c1 73 2 139 2 146 2 25 21 11 48 -35 27 -47 28 -47 31 -20 3 23 6 26 18
16 16 -13 16 -15 14 75 -1 43 3 72 10 76 13 8 27 90 15 90 -4 0 -13 -7 -20
-16 -10 -14 -13 -13 -24 15 -13 31 -31 42 -31 19 0 -7 12 -33 25 -57 18 -31
22 -48 15 -55 -5 -5 -10 -26 -10 -46 0 -24 -6 -39 -19 -47 -17 -11 -21 -10
-26 6 -10 31 -32 46 -49 32 -12 -10 -18 -3 -32 43 -16 50 -34 74 -34 46 0 -6
-11 -3 -24 5 -13 9 -48 20 -79 25 -48 7 -63 5 -118 -17 -35 -14 -77 -35 -92
-46 -20 -13 -32 -16 -39 -9 -7 7 12 33 64 84 57 57 83 91 113 156 22 45 43 82
47 82 3 0 12 -17 18 -37 17 -51 26 -59 41 -35 12 19 13 18 32 -16 10 -21 25
-44 33 -52 12 -12 14 -6 14 43 0 31 3 57 7 57 4 0 17 -12 30 -27 l22 -28 1 28
c0 37 11 34 37 -11 l22 -37 0 90 c0 59 -3 83 -9 70 -5 -11 -9 -33 -10 -50 l-1
-30 -14 25 c-16 30 -28 29 -36 -2 -6 -23 -6 -23 -19 5 -17 35 -28 34 -44 -3
l-12 -31 -12 26 c-7 14 -12 32 -12 40 0 8 -9 15 -19 15 -23 0 -30 41 -18 109
8 51 1 64 -19 37 -9 -13 -14 -46 -14 -93 l0 -73 -57 0 c-54 0 -62 3 -127 53
-86 64 -92 77 -35 77 90 0 181 45 250 124 33 38 44 44 62 37 31 -12 99 19 126
57 26 36 26 42 4 42 -11 1 -2 9 21 21 21 12 75 56 120 100 75 73 84 78 124 79
l42 0 0 -37z m29 -5 l-2 -43 -6 35 c-7 33 -5 50 5 50 2 0 3 -19 3 -42z m-1461
-76 c-42 -91 -88 -251 -88 -308 0 -31 -3 -34 -37 -39 -21 -4 -57 -12 -80 -19
l-43 -13 7 26 c3 14 19 64 35 111 16 47 34 99 39 117 17 57 91 156 143 190 26
18 52 31 56 28 5 -3 -10 -45 -32 -93z m115 15 c34 -84 54 -166 61 -253 l7 -71
-91 -7 c-51 -4 -105 -9 -121 -13 -37 -7 -37 2 -4 133 24 94 100 274 116 274 4
0 18 -29 32 -63z m172 -108 c29 -49 107 -230 102 -235 -1 -1 -38 1 -82 4 -92
8 -84 -2 -105 153 -6 48 -24 123 -39 168 l-28 82 59 -58 c33 -32 74 -83 93
-114z m-725 139 c0 -7 -4 -19 -9 -27 -11 -17 -25 3 -17 24 7 18 26 20 26 3z
m91 -8 c28 -16 23 -37 -11 -42 -16 -3 -30 -2 -30 1 0 3 -3 16 -6 29 -7 25 13
30 47 12z m894 -100 c-7 -70 -37 -130 -82 -170 -38 -34 -44 -32 -61 15 -5 17
-13 38 -17 48 -6 13 -2 17 18 17 17 0 28 7 32 20 3 11 22 43 41 71 20 28 41
65 47 82 l11 32 8 -30 c5 -17 6 -55 3 -85z m-919 -48 c9 -13 13 -30 10 -38 -6
-15 62 -64 89 -64 19 0 19 -2 -2 -44 l-16 -35 -36 19 c-46 23 -65 44 -90 100
-23 50 -27 123 -10 167 11 28 11 27 25 -27 8 -30 22 -65 30 -78z m814 119 c0
-12 -40 -41 -57 -41 -14 0 -18 32 -6 43 10 11 63 8 63 -2z m-1013 -28 c10 -16
23 -32 30 -36 18 -11 16 -31 -5 -50 -17 -15 -19 -15 -35 4 -13 15 -24 18 -40
13 -67 -22 -78 -2 -32 57 36 45 58 49 82 12z m1281 1 c15 -10 39 -14 74 -12
49 3 52 1 71 -30 11 -18 17 -35 14 -38 -3 -3 -24 0 -47 6 -55 15 -85 7 -120
-32 -33 -36 -50 -30 -50 16 0 24 -7 38 -22 49 -23 14 -23 15 -4 36 23 25 53
27 84 5z m-1492 -118 c29 -30 63 -57 74 -61 28 -9 25 -26 -10 -60 l-30 -29
-27 25 c-16 14 -56 43 -90 65 -35 21 -63 45 -63 53 0 24 41 61 67 61 16 0 43
-19 79 -54z m1224 49 c0 -23 -27 -55 -47 -55 -12 0 -26 0 -30 0 -20 0 -5 22
27 39 35 20 50 25 50 16z m-665 -28 c22 -17 12 -37 -18 -38 -17 -1 -18 -2 -4
-6 25 -7 21 -22 -9 -34 -22 -8 -33 -5 -60 13 -45 31 -43 39 9 33 38 -5 38 -2
-2 11 -11 3 -11 7 -1 19 15 19 60 19 85 2z m1325 3 c0 -5 -4 -10 -10 -10 -5 0
-10 5 -10 10 0 6 5 10 10 10 6 0 10 -4 10 -10z m-50 -24 c0 -14 -29 -31 -38
-21 -6 6 18 35 29 35 5 0 9 -6 9 -14z m-1977 -121 l26 -45 -37 0 c-20 0 -47
-3 -59 -6 -13 -4 -23 -2 -23 3 0 8 61 93 66 93 1 0 14 -20 27 -45z m402 35 c3
-5 22 -10 41 -10 44 0 44 -19 0 -67 -33 -37 -34 -37 -75 -25 -40 13 -51 25
-31 37 20 12 9 33 -22 45 l-33 12 25 8 c37 12 88 12 95 0z m1355 -10 c9 -17 6
-23 -22 -40 -20 -13 -41 -18 -53 -14 -11 3 -37 8 -57 11 -46 6 -40 23 6 23 19
0 44 9 57 20 31 25 56 25 69 0z m-310 -22 c-1 -26 -3 -30 -10 -16 -6 9 -7 23
-4 32 9 25 14 19 14 -16z m-48 -89 l-8 -54 -8 43 c-5 29 -4 47 4 58 19 22 21
13 12 -47z m-821 -54 l-7 -70 -7 55 c-4 30 -10 71 -13 90 l-6 35 20 -20 c18
-18 19 -28 13 -90z m36 33 c-3 -8 -6 -5 -6 6 -1 11 2 17 5 13 3 -3 4 -12 1
-19z m618 3 c-6 -21 19 -49 30 -31 4 6 4 17 1 25 -3 8 0 15 7 15 21 0 33 -14
33 -36 0 -20 -6 -21 -166 -27 -193 -7 -292 -20 -404 -52 -44 -13 -82 -22 -84
-20 -2 2 0 19 3 39 6 32 12 37 59 52 80 27 269 52 404 53 116 1 123 0 117 -18z
m-1413 -73 c28 -43 83 -90 128 -112 34 -16 66 -21 134 -22 l89 -1 33 -84 c41
-105 42 -119 9 -119 -31 0 -91 -29 -135 -67 -63 -52 -86 -145 -56 -218 8 -19
13 -35 10 -35 -3 0 -33 14 -67 31 -108 53 -206 165 -248 285 -18 51 -20 73
-15 161 8 120 27 190 64 234 l27 32 6 -31 c3 -17 13 -42 21 -54z m525 30 c23
-21 21 -48 -4 -48 -8 0 -28 -7 -44 -16 -17 -8 -33 -13 -35 -11 -3 2 -8 22 -11
42 -10 64 40 82 94 33z m1100 -23 c12 -9 11 -15 -7 -38 -12 -15 -26 -27 -31
-27 -10 0 -12 53 -2 89 6 22 7 22 16 5 6 -11 17 -24 24 -29z m-97 15 c0 -5 -4
-10 -10 -10 -5 0 -10 5 -10 10 0 6 5 10 10 10 6 0 10 -4 10 -10z m-781 -95 c2
-50 21 -28 21 25 0 23 3 31 10 24 7 -7 8 -33 4 -68 -5 -44 -10 -56 -23 -54 -8
2 -19 19 -24 39 -5 24 -17 40 -33 48 -21 9 -23 14 -14 31 6 10 18 24 28 29 20
12 29 -10 31 -74z m-579 30 c19 -14 42 -25 52 -25 11 0 18 -7 18 -20 0 -11 -3
-20 -7 -20 -24 0 -92 25 -117 43 -27 19 -28 21 -10 34 24 17 25 17 64 -12z
m455 -52 c41 -21 75 -41 75 -44 0 -4 -16 -24 -35 -44 -19 -21 -37 -45 -40 -55
-5 -15 -16 -18 -58 -17 -29 1 -59 -2 -67 -6 -13 -6 -20 6 -38 61 -27 83 -27
81 -2 75 15 -4 30 5 53 30 17 20 33 36 34 36 2 1 36 -16 78 -36z m1239 -39
c25 5 35 3 40 -9 7 -18 -34 -86 -49 -82 -18 6 -68 85 -60 96 5 9 10 9 21 0 8
-7 27 -9 48 -5z m-556 -65 c67 -34 122 -65 122 -70 0 -5 -9 -13 -20 -19 -15
-8 -20 -8 -20 1 0 7 -10 9 -30 6 -17 -4 -30 -2 -30 3 0 6 -11 10 -24 10 -19 0
-22 4 -18 25 2 15 0 25 -7 25 -7 0 -10 -4 -7 -9 7 -11 -10 -24 -57 -40 -33
-11 -44 -10 -82 6 -25 10 -46 25 -48 33 -3 10 -8 6 -15 -12 -8 -20 -21 -28
-59 -36 -26 -6 -50 -8 -53 -6 -7 8 37 39 105 75 33 18 71 41 84 51 13 10 26
18 30 18 3 0 61 -28 129 -61z m766 -144 c18 -9 40 -29 49 -45 39 -65 64 -290
35 -304 -9 -4 -9 -8 -2 -11 14 -7 2 -115 -14 -115 -4 0 -7 62 -7 137 0 163
-16 224 -71 273 -62 54 -123 32 -228 -81 -97 -104 -158 -233 -190 -399 -37
-190 -41 -251 -21 -356 26 -144 70 -194 139 -161 33 15 46 14 46 -5 0 -5 -19
-18 -43 -28 -53 -24 -105 -13 -148 29 -34 34 -46 76 -61 215 -13 124 -3 227
38 386 39 149 90 244 190 352 52 56 93 86 152 109 58 22 95 23 136 4z m-343
-74 l24 -20 -37 -37 c-21 -22 -42 -35 -51 -31 -18 7 -33 80 -18 85 6 2 9 8 5
13 -10 17 54 9 77 -10z m-975 -87 c17 6 18 1 4 -24 -6 -11 -17 -16 -28 -13
-10 2 -24 -3 -31 -11 -21 -26 -38 -19 -37 14 1 16 5 30 10 30 4 0 5 7 2 16 -4
10 4 19 27 29 32 13 32 13 35 -17 2 -21 8 -28 18 -24z m-439 26 c14 -11 39
-20 54 -20 16 0 29 -4 29 -8 0 -21 -42 -43 -108 -55 l-72 -14 0 29 c0 42 27
88 51 88 12 0 32 -9 46 -20z m268 -70 c-3 -5 -10 -10 -16 -10 -5 0 -9 5 -9 10
0 6 7 10 16 10 8 0 12 -4 9 -10z m705 -41 c0 -24 -4 -38 -10 -34 -5 3 -10 22
-10 41 0 19 5 34 10 34 6 0 10 -18 10 -41z m-1240 -22 c23 -21 40 -40 38 -43
-8 -7 -110 -24 -149 -24 -24 0 -39 5 -39 12 0 13 91 98 101 95 4 -1 26 -19 49
-40z m438 10 c2 -12 -3 -17 -17 -17 -12 0 -21 6 -21 13 0 31 32 34 38 4z m561
-99 l-2 -73 -8 64 c-7 58 -6 81 7 81 2 0 3 -33 3 -72z m-704 44 c-30 -25 -123
-82 -133 -82 -30 0 -5 37 28 41 14 2 25 11 25 19 0 8 5 18 10 22 14 10 82 10
70 0z m175 -25 c0 -12 -16 -46 -35 -75 -20 -28 -38 -67 -42 -84 -3 -18 -16
-45 -27 -59 -12 -15 -26 -35 -33 -45 -10 -17 -13 -17 -22 -4 -18 26 -12 73 14
120 14 25 37 68 50 97 15 32 35 58 52 67 33 17 43 13 43 -17z m60 7 c13 -34
13 -39 -4 -25 -17 14 -28 51 -15 51 5 0 14 -12 19 -26z m78 -6 c7 -7 12 -20
12 -30 0 -9 7 -21 16 -26 11 -6 13 -16 9 -35 -9 -35 -23 -35 -27 1 -2 21 -8
26 -24 24 -19 -2 -21 2 -18 35 2 21 3 39 3 41 2 6 18 1 29 -10z m-54 -71 c15
-24 -3 -35 -20 -13 -8 11 -14 24 -14 29 0 13 22 3 34 -16z m-90 -32 c-18 -44
-18 -45 7 -45 15 0 19 -5 15 -17 -3 -10 -8 -31 -12 -48 -4 -16 -17 -41 -29
-55 -25 -27 -65 -90 -65 -102 0 -18 23 -5 56 32 29 32 40 38 50 29 8 -6 14
-22 14 -34 0 -38 32 -129 51 -147 14 -12 19 -30 19 -71 0 -53 -1 -56 -30 -62
-106 -23 -238 84 -248 201 -6 70 5 125 22 118 8 -3 19 1 25 8 5 7 24 29 40 49
17 20 34 54 39 77 8 35 46 102 57 102 2 0 -3 -16 -11 -35z m1463 13 c13 -16
26 -68 17 -68 -3 0 -14 10 -23 22 -24 29 -65 18 -91 -25 -10 -17 -22 -36 -27
-42 -4 -5 -9 -28 -11 -50 -4 -42 -8 -52 -19 -42 -13 13 19 120 43 144 13 13
24 28 24 33 0 13 41 40 61 40 9 0 21 -6 26 -12z m-1347 -63 c0 -20 -26 -19
-34 1 -11 28 -7 35 14 24 11 -6 20 -17 20 -25z m1335 -5 c8 -26 -19 -121 -43
-150 -28 -34 -52 -20 -52 29 0 48 14 89 42 119 26 27 45 28 53 2z m-554 -41
c-9 -23 -10 -23 -10 -2 -1 12 2 30 6 40 6 15 8 15 11 2 1 -8 -2 -26 -7 -40z
m735 34 c-2 -10 -7 -33 -11 -51 -9 -45 -27 -29 -19 16 8 44 12 52 25 52 6 0 8
-8 5 -17z m-147 -35 c0 -13 -4 -32 -9 -43 -7 -15 -9 -10 -9 23 -1 23 4 42 9
42 6 0 10 -10 9 -22z m-1279 -2 c0 -8 -15 -19 -32 -26 -37 -12 -74 -37 -67
-45 3 -2 23 4 44 15 45 23 76 25 93 8 24 -24 13 -43 -35 -58 -26 -8 -48 -20
-50 -26 -3 -9 7 -8 34 2 57 20 73 18 73 -10 0 -27 -13 -40 -55 -52 l-30 -8 33
-4 c24 -2 32 -8 32 -22 0 -26 -27 -39 -91 -42 -52 -3 -54 -2 -70 32 -10 19
-20 55 -24 80 -4 25 -11 53 -17 63 -12 24 11 61 55 87 38 24 107 27 107 6z
m239 -104 c-1 -42 -2 -44 -9 -17 -11 45 -11 77 0 70 6 -3 9 -27 9 -53z m1150
-2 c-7 -23 -18 -44 -25 -47 -6 -2 -10 -12 -7 -22 6 -24 -23 -81 -42 -81 -10 0
-5 19 19 73 18 40 37 87 41 106 4 21 10 30 17 23 6 -6 5 -24 -3 -52z m-819 4
c0 -27 -4 -43 -10 -39 -11 7 -13 45 -4 69 10 26 14 18 14 -30z m-471 -29 c0
-18 -1 -17 -14 5 -8 14 -14 34 -14 45 0 18 1 17 14 -5 8 -14 14 -34 14 -45z
m1141 23 c-23 -35 -23 -31 -1 15 8 15 16 25 19 22 2 -2 -5 -19 -18 -37z m-107
-18 c7 -26 35 -36 58 -21 11 6 19 7 19 1 0 -5 -13 -16 -30 -25 -34 -17 -44
-19 -35 -5 3 6 -1 7 -9 4 -15 -6 -36 29 -36 57 0 18 28 9 33 -11z m-830 -210
c12 -14 3 -8 -20 14 -44 41 -44 42 -26 146 5 28 8 19 15 -50 6 -65 13 -90 31
-110z m-203 121 c0 -23 8 -48 20 -63 16 -21 18 -35 13 -95 -4 -55 -2 -72 10
-85 15 -14 15 -17 1 -22 -49 -19 -60 -3 -79 107 -14 80 -14 104 -5 128 7 16
10 32 6 36 -7 7 12 33 25 33 5 0 9 -17 9 -39z m679 -118 c6 -56 20 -126 31
-155 11 -29 20 -54 20 -54 0 -1 -39 -7 -86 -14 -98 -14 -379 -10 -407 6 -15 9
-11 14 32 34 l51 23 21 -27 c20 -26 22 -26 41 -9 10 9 31 38 46 65 14 26 34
49 44 51 22 6 22 5 -2 -42 -10 -21 -16 -41 -13 -45 12 -12 43 -6 62 13 18 18
19 18 30 -5 15 -33 30 -30 38 6 6 30 17 38 28 20 3 -5 13 -10 21 -10 17 0 18
39 4 108 -9 39 -8 54 5 78 8 16 15 38 15 48 0 45 9 4 19 -91z m524 36 c-27
-46 -120 -145 -128 -137 -4 4 8 25 28 47 20 22 48 58 63 81 33 49 65 58 37 9z
m-1293 -14 c0 -13 -4 -14 -22 -4 -34 17 -34 19 -5 19 18 0 27 -5 27 -15z
m1310 -10 c-7 -9 -15 -13 -18 -10 -3 2 1 11 8 20 7 9 15 13 18 10 3 -2 -1 -11
-8 -20z m-1336 -12 c33 -15 53 -40 41 -51 -11 -11 -85 31 -85 50 0 22 1 22 44
1z m1156 -148 c-18 -19 -37 -32 -42 -29 -10 6 50 63 66 64 6 0 -5 -16 -24 -35z
m-1123 -14 c15 -48 8 -75 -15 -61 -43 24 -43 25 -27 63 8 20 19 37 23 37 4 0
13 -18 19 -39z"/>
<path d="M3065 2645 c24 -8 196 -12 184 -4 -8 5 -54 8 -104 8 -49 0 -85 -2
-80 -4z"/>
<path d="M3100 2602 c0 -14 55 -41 96 -48 30 -4 43 -2 53 10 14 17 11 19 -30
16 -15 0 -43 6 -64 14 -42 18 -55 20 -55 8z"/>
<path d="M2503 2634 c-7 -18 17 -38 31 -24 11 11 1 40 -14 40 -6 0 -13 -7 -17
-16z"/>
<path d="M2595 2640 c-8 -14 3 -30 21 -30 8 0 14 9 14 20 0 21 -24 28 -35 10z"/>
<path d="M2404 2629 c-3 -6 0 -17 8 -25 13 -13 16 -13 27 0 7 8 10 20 6 26 -8
13 -32 13 -41 -1z"/>
<path d="M2311 2616 c-9 -10 -8 -16 4 -26 19 -16 41 1 32 24 -8 20 -21 20 -36
2z"/>
<path d="M2227 2604 c-14 -15 -6 -34 14 -34 14 0 19 5 17 17 -3 18 -20 27 -31
17z"/>
<path d="M2133 2574 c-8 -20 8 -36 26 -25 15 10 8 41 -9 41 -6 0 -13 -7 -17
-16z"/>
<path d="M1250 2360 c-16 -39 -7 -112 20 -156 22 -35 107 -97 121 -88 5 3 9
17 9 31 0 60 64 134 160 184 58 30 36 35 -64 15 -85 -18 -132 -12 -191 23 -20
12 -38 21 -39 21 -2 0 -9 -14 -16 -30z m155 -50 l67 0 -32 -26 c-17 -15 -44
-49 -59 -75 l-28 -49 -25 28 c-35 37 -58 85 -58 121 l0 30 35 -15 c19 -7 64
-14 100 -14z"/>
<path d="M3310 2199 c0 -5 5 -7 10 -4 6 3 10 8 10 11 0 2 -4 4 -10 4 -5 0 -10
-5 -10 -11z"/>
<path d="M3170 2180 c0 -5 5 -10 11 -10 5 0 7 5 4 10 -3 6 -8 10 -11 10 -2 0
-4 -4 -4 -10z"/>
<path d="M2975 1960 c3 -5 8 -10 11 -10 2 0 4 5 4 10 0 6 -5 10 -11 10 -5 0
-7 -4 -4 -10z"/>
<path d="M2840 1480 c0 -5 4 -10 9 -10 6 0 13 5 16 10 3 6 -1 10 -9 10 -9 0
-16 -4 -16 -10z"/>
<path d="M2850 1339 c0 -5 5 -7 10 -4 6 3 10 8 10 11 0 2 -4 4 -10 4 -5 0 -10
-5 -10 -11z"/>
<path d="M2875 1220 c3 -5 8 -10 11 -10 2 0 4 5 4 10 0 6 -5 10 -11 10 -5 0
-7 -4 -4 -10z"/>
<path d="M2950 1140 c0 -5 5 -10 10 -10 6 0 10 5 10 10 0 6 -4 10 -10 10 -5 0
-10 -4 -10 -10z"/>
<path d="M716 2825 c-10 -8 -30 -12 -45 -9 -41 8 -116 -35 -117 -66 0 -14 -4
-40 -8 -58 -7 -30 -10 -32 -24 -19 -48 41 -101 21 -127 -47 -22 -56 -9 -86 55
-131 52 -36 67 -82 31 -92 -12 -3 -21 -9 -21 -14 0 -16 23 -10 46 12 l22 20
18 -51 c10 -28 25 -57 34 -65 27 -25 147 -40 210 -26 74 16 80 20 97 82 35
129 20 403 -25 438 -50 39 -114 50 -146 26z m70 -9 c3 -8 12 -12 19 -10 18 7
62 -23 68 -47 3 -12 -4 -29 -19 -46 -13 -14 -24 -32 -24 -39 0 -8 -4 -14 -10
-14 -5 0 -10 5 -10 11 0 8 -4 8 -14 0 -12 -10 -17 -8 -26 8 -11 22 -54 29 -65
11 -4 -6 -15 -8 -25 -5 -13 4 -20 -2 -29 -25 -11 -33 -31 -32 -31 1 0 16 -5
19 -20 14 -17 -6 -20 -2 -20 28 0 20 -6 38 -12 41 -18 7 28 46 53 46 10 0 19
5 19 11 0 7 12 9 33 5 20 -3 39 0 51 9 25 19 55 19 62 1z m-279 -172 c3 -8 0
-21 -6 -27 -10 -9 -16 -7 -27 8 -15 19 -15 19 -12 -10 3 -25 7 -30 31 -30 25
1 27 -2 27 -42 l0 -43 -37 17 c-63 28 -76 43 -69 81 3 19 10 40 17 48 16 19
68 18 76 -2z"/>
<path d="M4405 2801 c-4 -3 -32 -7 -63 -8 -34 -1 -61 -8 -67 -16 -5 -7 -18
-16 -29 -20 -15 -6 -17 -14 -12 -48 3 -22 1 -69 -6 -105 -9 -52 -9 -87 1 -167
16 -130 29 -162 73 -175 63 -20 117 -24 175 -12 78 16 98 30 113 84 15 54 23
62 40 41 7 -8 22 -14 34 -14 16 1 17 2 4 6 -21 5 -32 36 -23 63 4 11 24 29 46
40 21 11 46 31 55 45 36 55 -17 155 -82 155 -22 0 -37 -6 -40 -15 -4 -8 -9
-15 -13 -15 -12 0 -29 59 -24 80 6 21 -23 52 -67 72 -28 13 -106 19 -115 9z
m88 -19 c-2 -6 4 -9 12 -6 8 3 28 -5 44 -18 30 -23 40 -48 21 -48 -5 0 -10
-13 -10 -29 0 -35 -13 -46 -30 -26 -19 23 -30 18 -30 -14 0 -16 -7 -34 -15
-41 -13 -10 -17 -7 -30 24 -16 38 -24 43 -43 24 -9 -9 -16 -8 -29 5 -10 8 -31
21 -48 27 -26 10 -31 8 -46 -11 l-17 -22 -16 31 c-19 37 -21 62 -3 62 7 0 18
9 25 21 7 11 21 19 30 18 9 -1 26 2 36 6 14 6 24 3 36 -13 17 -21 18 -21 23
-2 7 26 95 38 90 12z m216 -168 c21 -27 27 -60 13 -80 -4 -7 -28 -23 -54 -37
l-48 -25 0 49 c0 44 2 49 18 41 26 -14 42 -3 41 26 0 15 -3 21 -6 15 -5 -15
-29 -17 -37 -4 -4 5 -3 16 0 25 10 25 50 19 73 -10z"/>
<path d="M817 1843 c-14 -13 -6 -33 13 -33 13 0 20 7 20 20 0 19 -20 27 -33
13z"/>
<path d="M786 1711 c-4 -5 -1 -21 5 -35 17 -37 -2 -93 -54 -156 -78 -96 -97
-131 -97 -177 0 -74 63 -110 175 -101 35 3 40 6 40 28 0 27 -23 37 -91 39 -84
2 -94 42 -29 123 85 105 118 193 98 255 -10 28 -36 42 -47 24z"/>
<path d="M1019 1646 c-50 -13 -104 -48 -119 -76 -17 -32 -12 -95 11 -124 12
-15 49 -41 83 -57 90 -46 122 -74 141 -122 28 -73 -4 -149 -91 -216 -100 -76
-253 -107 -302 -61 -28 27 -28 42 5 102 21 38 25 53 16 66 -17 28 -35 20 -66
-31 -99 -162 36 -276 246 -206 211 70 313 248 231 400 -32 57 -49 72 -151 123
-40 20 -77 44 -82 55 -24 44 80 110 155 98 48 -8 64 -23 64 -63 0 -38 14 -51
35 -34 36 30 -1 129 -53 144 -47 13 -81 14 -123 2z"/>
<path d="M3532 1264 c-68 -18 -104 -37 -152 -81 -45 -40 -77 -87 -91 -135 -17
-57 -12 -153 10 -203 24 -54 28 -55 -109 39 -52 36 -103 66 -112 66 -25 0 -33
-42 -18 -95 10 -37 10 -61 -4 -143 -17 -103 -14 -135 13 -130 33 6 56 77 56
175 0 51 1 93 2 93 7 0 261 -185 284 -206 31 -29 65 -31 79 -3 13 24 -6 62
-69 138 -60 71 -81 118 -81 180 0 99 50 169 158 218 101 47 206 28 255 -46
l25 -38 -63 -65 c-92 -95 -119 -152 -120 -255 0 -80 1 -83 34 -117 49 -51 106
-70 188 -64 89 7 170 39 245 96 81 62 120 118 125 179 4 39 1 52 -17 71 -12
13 -19 26 -16 29 11 11 150 7 188 -6 43 -14 88 -63 88 -95 0 -38 -50 -124 -92
-161 -92 -78 -321 -173 -519 -215 -83 -18 -123 -21 -196 -16 -59 3 -93 2 -93
-5 0 -30 194 -48 340 -30 145 18 338 90 453 170 160 109 212 276 118 370 -96
96 -304 87 -555 -22 -81 -36 -101 -53 -90 -81 8 -21 38 -20 100 3 97 37 215
40 228 5 15 -40 -78 -138 -176 -184 -110 -52 -234 -49 -278 8 -41 51 -20 151
51 239 96 119 310 231 355 186 15 -16 17 -16 30 1 9 13 10 24 3 37 -22 41
-108 36 -209 -12 -59 -28 -64 -29 -73 -13 -29 51 -92 105 -140 119 -61 18 -86
18 -155 -1z"/>
<path d="M1595 1102 c-175 -60 -300 -207 -312 -367 -5 -52 -2 -71 17 -110 29
-60 77 -108 143 -142 46 -25 62 -28 142 -27 109 1 171 22 285 99 l79 52 12
-28 c11 -28 8 -32 -46 -94 -58 -66 -65 -95 -26 -95 11 0 25 10 32 23 6 12 29
41 51 64 37 38 43 40 70 31 92 -32 235 37 312 152 23 36 20 91 -8 133 l-24 36
74 62 c74 62 87 86 59 109 -17 14 -57 -14 -133 -93 l-44 -45 -62 5 c-81 7
-110 -8 -206 -106 -199 -202 -403 -279 -547 -205 -31 16 -70 46 -87 67 -27 34
-31 46 -31 100 1 119 87 232 225 295 100 46 266 39 286 -13 17 -44 -41 -124
-111 -150 -37 -15 -47 -15 -72 -3 -23 11 -29 20 -31 54 -3 35 1 45 22 62 44
34 27 77 -20 52 -53 -29 -69 -132 -29 -193 74 -113 304 11 305 165 0 84 -71
128 -206 128 -39 -1 -91 -8 -119 -18z m530 -384 c-38 -40 -77 -82 -87 -93 -18
-19 -18 -19 -18 8 0 36 117 157 151 157 19 0 11 -12 -46 -72z m169 19 c19 -54
-88 -145 -182 -154 l-47 -5 97 97 c53 53 103 95 110 93 7 -3 17 -16 22 -31z"/>
<path d="M2830 1011 c0 -11 4 -22 9 -25 12 -8 34 21 26 34 -11 17 -35 11 -35
-9z"/>
<path d="M2693 954 c-7 -3 -31 -64 -55 -135 -23 -71 -45 -129 -48 -129 -4 0
-17 40 -29 90 -28 107 -42 130 -68 114 -10 -6 -21 -24 -25 -40 -4 -16 -19 -78
-34 -139 -31 -130 -99 -275 -162 -346 -51 -57 -140 -104 -227 -120 -73 -13
-228 3 -292 31 -23 10 -44 16 -47 12 -28 -27 53 -72 176 -98 214 -46 398 35
505 221 45 78 96 194 114 258 l12 42 24 -72 c39 -116 79 -107 119 27 7 21 9
15 16 -32 15 -112 62 -155 138 -125 l40 15 -15 -35 c-24 -56 -19 -109 11 -140
22 -22 32 -25 77 -21 72 7 186 57 193 85 13 50 -17 55 -101 16 -75 -33 -129
-37 -133 -7 -2 11 22 72 53 134 61 126 69 176 39 264 -19 55 -73 116 -103 116
-32 0 -26 -32 10 -59 17 -13 38 -39 46 -59 31 -74 12 -183 -31 -180 -11 1 -43
-14 -70 -32 -77 -53 -80 -46 -84 155 -3 183 -9 205 -49 189z"/>
</g>
</svg>
